<svg xmlns="http://www.w3.org/2000/svg" viewBox="0 0 512 512" id="crossbow">
  <path fill="#8b8893" d="M436.12 401.35a7.25 7.25 0 0 1-7.2-8.28L482 17.64a7.27 7.27 0 1 1 14.39 2L443.31 395.1a7.28 7.28 0 0 1-7.19 6.25zm-412.9 93.16a7.27 7.27 0 0 1-1-14.46l361.29-51.68a7.26 7.26 0 0 1 2.06 14.38L24.26 494.43a7.4 7.4 0 0 1-1.04.08z"></path>
  <path fill="#57565c" d="M421.57 434.73a7.26 7.26 0 0 1-5.16-2.14L36.75 51.4a7.27 7.27 0 0 1 10.32-10.24l379.66 381.19a7.26 7.26 0 0 1-5.16 12.38Z"></path>
  <path fill="#eb304a" d="m481.48 434-52.38-1.35a2.91 2.91 0 0 0-3 3l1.35 52.68a2.91 2.91 0 0 1-5 2.12l-64-64.31a2.93 2.93 0 0 1-.84-2l-1.5-58.82a2.91 2.91 0 0 1 3-3l58.46 1.51a2.92 2.92 0 0 1 2 .86l64 64.34a2.9 2.9 0 0 1-2.09 4.97Z"></path>
  <path fill="#e4222e" d="M426.1 434.73a9.45 9.45 0 0 0-9 9.68l1.06 41.73 4.29 4.31a2.91 2.91 0 0 0 5-2.12zm57.52-5.66-64-64.34a2.92 2.92 0 0 0-2-.86l-58.46-1.51a2.91 2.91 0 0 0-3 3l.28 11 45.72 1.18a19.39 19.39 0 0 1 13.24 5.7l50.09 50.37 16 .41a2.9 2.9 0 0 0 2.13-4.95z"></path>
  <path fill="#8b8893" d="m19.77 70.64-9.06-52.33A2.91 2.91 0 0 1 14.08 15l52.13 9a2.91 2.91 0 0 1 1.56 5L24.7 72.19a2.91 2.91 0 0 1-4.93-1.55Z"></path>
  <path fill="#787681" d="m66.21 24-52.13-9a2.91 2.91 0 0 0-3.37 3.36l.38 2.16L53 27.78a2.91 2.91 0 0 1 1.56 4.91L19.33 68.07l.44 2.57a2.91 2.91 0 0 0 4.93 1.55L67.77 29a2.91 2.91 0 0 0-1.56-5Z"></path>
  <path fill="#a17855" d="M23.23 487.24c-.81-.81 28.16-19.91 40.79-58.47 7.1-21.68 4-34 3.47-64.59-.49-29.31-1.35-85.18 19.1-134.41 7-16.81 20.22-41.84 46.87-68.08l38.19 41.91c-19.47 24.57-43.75 62.57-53.81 113.46-5.81 29.62-1.94 38.54-9.55 63.71C87.09 451 24.38 488.41 23.23 487.24zm466-468.58c-.8-.81-19.8 28.32-58.11 41-21.6 7.14-33.85 4-64.3 3.47-29.14-.46-84.76-1.35-133.66 19.2-16.73 7-41.65 20.34-67.71 47.13l41.65 38.41c24.45-19.59 62.24-44 112.84-54.12 29.46-5.89 38.33-1.93 63.37-9.6 69.88-21.27 107.09-84.33 105.92-85.49z"></path>
  <path fill="#896848" d="M133.46 161.69c-.23.22-.45.45-.67.67l24.33 26.71c-19.47 24.57-43.75 62.57-53.81 113.46-5.81 29.62-1.94 38.54-9.55 63.72a178.93 178.93 0 0 1-27.34 54c-.63 2.72-1.41 5.55-2.4 8.56-12.63 38.56-41.6 57.66-40.79 58.47 1.15 1.17 63.86-36.24 85.06-106.47 7.61-25.17 3.74-34.09 9.55-63.71 10.06-50.89 34.34-88.89 53.81-113.46zM489.23 18.66c-.8-.81-19.8 28.32-58.11 41-3 1-5.83 1.78-8.54 2.41a177.29 177.29 0 0 1-53.8 27.56c-25 7.66-33.91 3.71-63.36 9.59-50.61 10.13-88.4 34.53-112.85 54.12L166 128.89l-.59.59 41.65 38.41c24.45-19.59 62.24-44 112.84-54.12 29.46-5.89 38.33-1.93 63.37-9.6 69.92-21.29 107.13-84.35 105.96-85.51z"></path>
  <path fill="#896848" d="M352.3 63.15c18.39.31 30.14 1.58 41.32 1-7.46-.27-16-.79-26.8-1-6.6-.1-14.57-.23-23.5-.12 3.21.03 6.21.08 8.98.12Z"></path>
  <path fill="#896848" d="M489.23 18.66c-.64-.65-13.07 18.06-37.84 32-17.83 19.34-45.65 42.25-82.61 53.51-25 7.67-33.91 3.71-63.36 9.6-45.46 9.09-80.56 29.71-105 48l6.63 6.12c24.45-19.59 62.24-44 112.84-54.12 29.46-5.89 38.33-1.93 63.37-9.6 69.93-21.29 107.14-84.35 105.97-85.51Z"></path>
  <path fill="#f9a242" d="m211.17 175.27-42.34 42.57a2.91 2.91 0 0 1-4.12 0l-48.43-48.71a2.92 2.92 0 0 1 0-4.1l42.33-42.56a2.89 2.89 0 0 1 4.12 0l48.44 48.7a2.9 2.9 0 0 1 0 4.1Z"></path>
  <path fill="#f69531" d="m211.17 171.17-48.44-48.7a2.89 2.89 0 0 0-4.12 0l-5.2 5.23 31.68 31.86a19.36 19.36 0 0 1 0 27.32l-25.58 25.72 5.2 5.24a2.91 2.91 0 0 0 4.12 0l42.34-42.57a2.9 2.9 0 0 0 0-4.1Z"></path>
  <circle cx="489" cy="24.5" r="15" fill="#f9a242"></circle>
  <path fill="#f69531" d="M489 9.5a15 15 0 0 0-5.3 1 15 15 0 0 1 1.6 28.5A15 15 0 1 0 489 9.5Z"></path>
  <circle cx="23" cy="487.5" r="15" fill="#f9a242"></circle>
  <path fill="#f69531" d="M23 472.5a14.88 14.88 0 0 0-4.88.83 15 15 0 0 1 1.76 28.84 15.29 15.29 0 0 0 3.12.33 15 15 0 0 0 0-30Z"></path>
</svg>
