<svg xmlns="http://www.w3.org/2000/svg" viewBox="0 0 512 512" id="warrior-helmet">
  <path fill="#eb304a" d="M201.79,124c-24.87-40.64-20.35-85.21,3.35-104.47,13.06-10.61,34.6-15.67,52.81-9,25.2,9.18,36.14,38.15,54.82,55.65,35.22,33,83.88-3.4,89-43.72a93.59,93.59,0,0,1,13.86,69.76,93.59,93.59,0,0,1-39.8,59c-12.85,8.45-29.37,13.61-43.62,7.84-21.47-8.69-29.74-36.86-54.76-39-16.71-1.42-31.46,8.77-41.7,18.18-2.53.58-13.41,2.77-23.77-3.66A30.43,30.43,0,0,1,201.79,124Z"></path>
  <path fill="#e4222e" d="M243 10.52c25.2 9.18 36.14 38.15 54.82 55.65 12 11.19 25.44 14.39 38.26 12.17-8-1.44-15.92-5.29-23.26-12.17C294.09 48.67 283.15 19.7 258 10.52A52.94 52.94 0 0 0 232.84 8 48.85 48.85 0 0 1 243 10.52zM262.45 120.05c-16.69-1.42-31.43 8.74-41.66 18.14a34 34 0 0 0 15 0c8-7.32 18.67-15.12 30.89-17.55A32.47 32.47 0 0 0 262.45 120.05zM401.77 22.45A62.91 62.91 0 0 1 396.3 41a93.57 93.57 0 0 1 4.33 51.19 93.59 93.59 0 0 1-39.8 59A63 63 0 0 1 338 160.77c12.8 2.62 26.71-2.23 37.87-9.56a93.59 93.59 0 0 0 39.8-59A93.59 93.59 0 0 0 401.77 22.45z"></path>
  <path fill="#57565c" d="M235.8,165.49h-36v-24a18,18,0,0,1,36,0Z"></path>
  <path fill="#3c3b41" d="M217.8,123.49a17.89,17.89,0,0,0-7.5,1.65,18,18,0,0,1,10.5,16.35v24h15v-24A18,18,0,0,0,217.8,123.49Z"></path>
  <polygon fill="#787681" points="339.98 438.09 304.31 457.4 291.07 464.56 224.8 500.43 217.3 504.49 209.8 500.43 145.15 465.44 132.09 458.37 94.62 438.09 111.7 343.93 322.9 343.93 339.98 438.09"></polygon>
  <path fill="#787681" d="M317.91,265.14v42.77H116.69V265.14A104.47,104.47,0,0,1,184,167.72l23.64-9.07q1.06-.41,2.16-.72a26.76,26.76,0,0,1,15,0q1.09.31,2.16.72l23.64,9.07A104.47,104.47,0,0,1,317.91,265.14Z"></path>
  <path fill="#57565c" d="M279.44,184.39a104.37,104.37,0,0,1,23.47,65.75v42.77H116.69v15H317.91V265.14A104.48,104.48,0,0,0,279.44,184.39Z"></path>
  <path fill="#8b8893" d="M224.8 157.93V266.28a7.5 7.5 0 0 1-15 0V157.93A26.76 26.76 0 0 1 224.8 157.93zM304.31 457.4l-13.24 7.16a6.9 6.9 0 0 1-.41-.87L254.29 369.6a7.5 7.5 0 1 1 14-5.41zM181.53 372l-35.42 91.66a7.05 7.05 0 0 1-1 1.75l-13.06-7.07 0-.09 35.42-91.66a7.5 7.5 0 1 1 14 5.41zM224.8 368.31V500.43l-7.5 4.06-7.5-4.06V368.31a7.5 7.5 0 0 1 15 0z"></path>
  <path fill="#57565c" d="M322.9,343.93h-15l14.49,79.9A20,20,0,0,1,312.24,445L289.31,457.4l-13.24,7.16L209.8,500.43l7.5,4.06,7.5-4.06,66.27-35.87,13.24-7.16L340,438.09Z"></path>
  <polygon fill="#3c3b41" points="328.58 341.81 217.3 383.31 106.02 341.81 106.02 282.88 217.3 266.28 328.58 282.88 328.58 341.81"></polygon>
  <path fill="#2c2a2d" d="M313.58,280.64v44.74a20,20,0,0,1-13,18.74l-94.18,35.12,10.91,4.07,111.28-41.5V282.88Z"></path>
  <path fill="#8b8893" d="M218.15 347.6a7.5 7.5 0 0 1-7.5-7.5V295.81a7.5 7.5 0 0 1 15 0V340.1A7.5 7.5 0 0 1 218.15 347.6zM246.38 346a7.5 7.5 0 0 1-7.5-7.5V295.81a7.5 7.5 0 0 1 15 0V338.5A7.5 7.5 0 0 1 246.38 346zM189.92 346a7.5 7.5 0 0 1-7.5-7.5V295.81a7.5 7.5 0 0 1 15 0V338.5A7.5 7.5 0 0 1 189.92 346zM274.61 339.06a7.5 7.5 0 0 1-7.5-7.5V301.14a7.5 7.5 0 0 1 15 0v30.42A7.5 7.5 0 0 1 274.61 339.06zM161.69 339.06a7.5 7.5 0 0 1-7.5-7.5V301.14a7.5 7.5 0 0 1 15 0v30.42A7.5 7.5 0 0 1 161.69 339.06zM302.84 331.59a7.5 7.5 0 0 1-7.5-7.5V311.82a7.5 7.5 0 0 1 15 0v12.27A7.5 7.5 0 0 1 302.84 331.59zM133.66 331.79a7.5 7.5 0 0 1-7.5-7.5V312a7.5 7.5 0 0 1 15 0v12.27A7.5 7.5 0 0 1 133.66 331.79z"></path>
</svg>
