<svg xmlns="http://www.w3.org/2000/svg" viewBox="0 0 512 512" id="shield">
  <path fill="#b28b6a" d="M256.28,504.5l40.79-30.13A335.73,335.73,0,0,0,433,204.31V77.13A299,299,0,0,1,317,47.35,296.62,296.62,0,0,1,256,7.5a296.62,296.62,0,0,1-61,39.85A299,299,0,0,1,79,77.13V204.31a335.73,335.73,0,0,0,136,270.06l40.79,30.13"></path>
  <path fill="#a17855" d="M317,47.35A296.62,296.62,0,0,1,256,7.5c-5.09,4.3-17,13.32-17,13.32s.79,2.68,2,1.68a296.62,296.62,0,0,0,61,39.85A297.68,297.68,0,0,0,400.3,90.71,20,20,0,0,1,418,110.58V219.31a336.12,336.12,0,0,1-90.91,230A336,336,0,0,0,433,204.31V77.13A299,299,0,0,1,317,47.35Z"></path>
  <path fill="#3c3b41" d="M109 112.86a7.48 7.48 0 0 1-7.5-7.47v0a7.5 7.5 0 1 1 7.5 7.52zM160.8 100.53a7.54 7.54 0 0 1-7.21-5.31 7.46 7.46 0 0 1 4.91-9.33l.17 0A7.5 7.5 0 1 1 163 100.21 7.62 7.62 0 0 1 160.8 100.53zM210.19 80.8a7.49 7.49 0 0 1-3.42-14.17l.08 0a7.5 7.5 0 1 1 3.34 14.21zM256 53.78a7.67 7.67 0 0 1-6.36-3.47A7.49 7.49 0 0 1 251.92 40l0 0A7.52 7.52 0 1 1 256 53.78zM351.27 100.55a7.54 7.54 0 0 1-2.14-.31l-.16 0a7.5 7.5 0 0 1 4.44-14.33L351.19 93l2.24-7.15a7.5 7.5 0 0 1-2.16 14.68zm-49.4-19.72a7.51 7.51 0 1 1 3.28-14.24l.08 0a7.5 7.5 0 0 1-3.36 14.2zM403 112.86A7.51 7.51 0 1 1 404.52 98h.05A7.51 7.51 0 0 1 403 112.86zM302.56 438.64a7.5 7.5 0 0 1-5.14-13l.25-.23a7.5 7.5 0 1 1 4.89 13.2zm.63-6.93l0 0-.59-.68zm39-36.73a7.52 7.52 0 1 1 6.09-3.11l-.06.08A7.5 7.5 0 0 1 342.17 395zm30.5-50.47a7.49 7.49 0 0 1-6.78-10.65l.08-.18a7.5 7.5 0 1 1 13.51 6.53L372.73 337l6.74 3.28A7.53 7.53 0 0 1 372.67 344.51zM393 289.19a7.63 7.63 0 0 1-1.88-.24 7.49 7.49 0 0 1-5.38-9.13s0-.13 0-.15a7.5 7.5 0 0 1 14.5 3.85l-7.25-1.92 7.24 2A7.51 7.51 0 0 1 393 289.19zm9.4-58.21a5.43 5.43 0 0 1-.57 0 7.55 7.55 0 1 1 8.05-7.13s0 .17 0 .21A7.51 7.51 0 0 1 402.43 231zm.6-59a7.53 7.53 0 1 1 7.5-7.6v.1A7.5 7.5 0 0 1 403 171.94zM256 474.91a7.52 7.52 0 1 1 4.47-1.48l0 0A7.48 7.48 0 0 1 256 474.91zM209.47 438.66a7.45 7.45 0 0 1-5.08-2l5.08-5.52-5.1 5.5a7.5 7.5 0 0 1 10-11.14l.14.12a7.5 7.5 0 0 1-5.08 13zM169.79 395a7.41 7.41 0 0 1-6-3l-.06-.08a7.46 7.46 0 1 1 6 3.09zm-30.51-50.46a7.44 7.44 0 0 1-6.71-4.2l-.08-.18a7.47 7.47 0 1 1 6.79 4.38zm-20.34-55.34a7.45 7.45 0 0 1-7.21-5.54.74.74 0 0 0 0-.14 7.47 7.47 0 1 1 7.25 5.68zM109.58 231A7.49 7.49 0 0 1 102.1 224l7.48-.45-7.48.43a7.5 7.5 0 1 1 15-1.09s0 .17 0 .21a7.5 7.5 0 0 1-7 7.94zM109 171.93a7.46 7.46 0 0 1-7.5-7.45v-.1a7.5 7.5 0 1 1 7.5 7.55z"></path>
  <path fill="#efefef" d="M139,129.64v74.67c0,87.26,41.73,170.18,111.61,221.8l5.42,4,5.42-4C331.3,374.49,373,291.57,373,204.31V129.64a354.1,354.1,0,0,1-82.38-28.39A354.52,354.52,0,0,1,256,81.82a354.52,354.52,0,0,1-34.65,19.43A354.1,354.1,0,0,1,139,129.64Z"></path>
  <path fill="#e1e1e3" d="M290.65,101.25A354.52,354.52,0,0,1,256,81.82q-10.51,6.69-21.48,12.64a357.19,357.19,0,0,0,33.63,18.79,354.65,354.65,0,0,0,67.45,24.89,20,20,0,0,1,14.93,19.34v58.83a276.94,276.94,0,0,1-98.12,211.15l3.59,2.65,5.42-4C331.3,374.49,373,291.57,373,204.31V129.64A354.1,354.1,0,0,1,290.65,101.25Z"></path>
  <path fill="#eb304a" d="M258.83,298l11.1-11.11a3,3,0,0,0,.88-2.12V260.11a3,3,0,0,1,3-3h24a3,3,0,0,0,2.12-.88L311,245.12a3,3,0,0,0,0-4.25l-11.1-11.1a3,3,0,0,0-2.12-.87h-24a3,3,0,0,1-3-3V201.23a3,3,0,0,0-.88-2.12L258.83,188a3,3,0,0,0-4.24,0l-11.11,11.11a3,3,0,0,0-.88,2.12V225.9a3,3,0,0,1-3,3H214.22a3,3,0,0,0-2.12.87L201,240.87a3,3,0,0,0,0,4.25l11.1,11.11a3,3,0,0,0,2.12.88H239.6a3,3,0,0,1,3,3v24.66a3,3,0,0,0,.88,2.12L254.59,298A3,3,0,0,0,258.83,298Z"></path>
  <path fill="#e4222e" d="M311,240.87l-11.1-11.1a3,3,0,0,0-2.12-.87h-24a3,3,0,0,1-3-3V201.23a3,3,0,0,0-.88-2.12L258.83,188a3,3,0,0,0-4.24,0l-11.11,11.11a.1.1,0,0,0,0,0,2,2,0,0,1,.39.32l11.1,11.1a3,3,0,0,1,.88,2.13v24.66a3,3,0,0,0,3,3h24a3,3,0,0,1,2.12.88l11.1,11.1a3,3,0,0,1,0,4.24l-.51.51h2.29a3,3,0,0,0,2.12-.87L311,245.12A3,3,0,0,0,311,240.87Z"></path>
</svg>
