<svg xmlns="http://www.w3.org/2000/svg" viewBox="0 0 512 512" id="spear">
  <path fill="#a17855" d="M499.1 497.06a18.54 18.54 0 0 1-26.1 0L263.5 289.28l-15-14.87-11.07-11-15-14.87-121.1-120.09 26.15-25.75 121 120 15 14.88 11.07 11 15 14.87L499.1 471.22l.16.16a18.15 18.15 0 0 1-.16 25.68Z"></path>
  <path fill="#896848" d="m499.26 471.38-.16-.16L127.48 102.7l-7.48 7.41 364.1 361.11.16.16a18.15 18.15 0 0 1-.16 25.68 18.39 18.39 0 0 1-5.55 3.77 18.51 18.51 0 0 0 20.55-3.77 18.15 18.15 0 0 0 .16-25.68Z"></path>
  <path fill="#e1e1e3" d="M123.79 124.88V66.79L7.5 9.57l57.7 115.31h58.59z"></path>
  <path fill="#c8c5cc" d="m7.5 9.57 4.9 9.79 96.39 47.43v58.09h15V66.79L7.5 9.57z"></path>
  <path fill="#c8c5cc" d="M114.45 123.12a7.48 7.48 0 0 1-5.28-2.18L75.92 88a7.5 7.5 0 1 1 10.56-10.68l33.25 33a7.5 7.5 0 0 1-5.28 12.83Z"></path>
  <path fill="#57565c" d="m367.4 391.37 22.6-22.63a15 15 0 0 1 21.22 0 15 15 0 0 1 0 21.22l-22.63 22.62a15 15 0 0 1-21.21 0 15 15 0 0 1 .02-21.21Z"></path>
  <path fill="#3c3b41" d="M411.24 368.74a15 15 0 0 0-18.11-2.37 15.25 15.25 0 0 1 3.11 2.37 15 15 0 0 1 0 21.22l-22.63 22.62a14.9 14.9 0 0 1-3.11 2.42 15 15 0 0 0 18.11-2.37L411.24 390a15 15 0 0 0 0-21.26Z"></path>
  <path fill="#57565c" d="m388.62 412.57 22.63-22.63a15 15 0 0 1 21.21 0 15 15 0 0 1 0 21.22l-22.63 22.63a15 15 0 0 1-21.21 0 15 15 0 0 1 0-21.22Z"></path>
  <path fill="#3c3b41" d="M432.46 389.94a15 15 0 0 0-18.11-2.36 15.2 15.2 0 0 1 3.11 2.36 15 15 0 0 1 0 21.22l-22.63 22.63a15.41 15.41 0 0 1-3.1 2.36 15 15 0 0 0 18.1-2.36l22.63-22.63a15 15 0 0 0 0-21.22Z"></path>
  <path fill="#57565c" d="m409.83 433.79 22.63-22.63a15 15 0 0 1 21.21 0 15 15 0 0 1 0 21.22L431 455a15 15 0 0 1-21.21 0 15 15 0 0 1 .04-21.21Z"></path>
  <path fill="#3c3b41" d="M453.67 411.16a15 15 0 0 0-18.1-2.37 15.47 15.47 0 0 1 3.1 2.37 15 15 0 0 1 0 21.22L416 455a14.59 14.59 0 0 1-3.1 2.37A15 15 0 0 0 431 455l22.63-22.62a15 15 0 0 0 .04-21.22Z"></path>
  <path fill="#e1e1e3" d="m115.66 167.89 51.46-51a3 3 0 0 0 0-4.26l-22.7-22.52a3 3 0 0 0-4.22 0l-51.46 51a3 3 0 0 0 0 4.26l22.7 22.51a3 3 0 0 0 4.22.01Z"></path>
  <path fill="#c8c5cc" d="m167.12 112.6-22.7-22.52a3 3 0 0 0-4.22 0l-5.39 5.35 17.31 17.17a3 3 0 0 1 0 4.26l-46.07 45.69 5.39 5.34a3 3 0 0 0 4.22 0l51.46-51a3 3 0 0 0 0-4.29Z"></path>
  <path fill="#72553b" d="m289.57 263.43-26.07 25.85-26.07-25.85 26.07-25.84 26.07 25.84z"></path>
  <path fill="#72553b" d="m274.57 248.56-26.07 25.85-11.07-10.98-15-14.87 26.07-25.85 15 14.88 11.07 10.97z"></path>
  <path fill="#a17855" d="M12.9 497.06a18.15 18.15 0 0 1-.16-25.68l.16-.16L384.52 102.7l26.15 25.75L39 497.06a18.54 18.54 0 0 1-26.1 0Z"></path>
  <path fill="#896848" d="m384.52 102.7-7.47 7.41 18.62 18.34L24 497.06a18.39 18.39 0 0 1-5.55 3.77A18.51 18.51 0 0 0 39 497.06l371.67-368.61Z"></path>
  <path fill="#e1e1e3" d="M388.21 124.88V66.79L504.5 9.57l-57.7 115.31h-58.59z"></path>
  <path fill="#c8c5cc" d="m504.5 9.57-4.9 9.79-96.39 47.43v58.09h-15V66.79L504.5 9.57z"></path>
  <path fill="#c8c5cc" d="M397.55 123.12a7.48 7.48 0 0 0 5.28-2.18l33.25-33a7.5 7.5 0 0 0-10.56-10.65l-33.25 33a7.5 7.5 0 0 0 5.28 12.83Z"></path>
  <path fill="#57565c" d="m100.76 390 22.63 22.62a15 15 0 0 0 21.21 0 15 15 0 0 0 0-21.21L122 368.74a15 15 0 0 0-21.21 0 15 15 0 0 0-.03 21.26Z"></path>
  <path fill="#3c3b41" d="M144.6 412.58a15 15 0 0 1-18.1 2.42 15 15 0 0 0 3.1-23.58L107 368.74a15.25 15.25 0 0 0-3.11-2.37 15 15 0 0 1 18.11 2.37l22.62 22.63a15 15 0 0 1-.02 21.21Z"></path>
  <path fill="#57565c" d="m123.38 412.57-22.63-22.63a15 15 0 0 0-21.21 0 15 15 0 0 0 0 21.22l22.63 22.63a15 15 0 0 0 21.21 0 15 15 0 0 0 0-21.22Z"></path>
  <path fill="#3c3b41" d="m123.38 412.57-22.63-22.63a15 15 0 0 0-18.1-2.36 15.41 15.41 0 0 1 3.1 2.36l22.63 22.63a15 15 0 0 1 0 21.22 15.2 15.2 0 0 1-3.11 2.36 15 15 0 0 0 18.11-23.58Z"></path>
  <path fill="#57565c" d="m102.17 433.79-22.63-22.63a15 15 0 0 0-21.21 0 15 15 0 0 0 0 21.22L81 455a15 15 0 0 0 21.22 0 15 15 0 0 0-.05-21.21Z"></path>
  <path fill="#3c3b41" d="m102.17 433.79-22.63-22.63a15 15 0 0 0-18.11-2.37 15.25 15.25 0 0 1 3.11 2.37l22.63 22.63a15 15 0 0 1-3.11 23.58 15 15 0 0 0 18.11-23.58Z"></path>
  <path fill="#e1e1e3" d="m396.34 167.89-51.46-51a3 3 0 0 1 0-4.26l22.7-22.52a3 3 0 0 1 4.22 0l51.46 51a3 3 0 0 1 0 4.26l-22.7 22.51a3 3 0 0 1-4.22.01Z"></path>
  <path fill="#c8c5cc" d="m344.88 112.6 22.7-22.52a3 3 0 0 1 4.22 0l5.39 5.35-17.31 17.17a3 3 0 0 0 0 4.26L406 162.55l-5.39 5.34a3 3 0 0 1-4.22 0l-51.46-51a3 3 0 0 1-.05-4.29Z"></path>
</svg>
