<svg xmlns="http://www.w3.org/2000/svg" viewBox="0 0 512 512" id="sword">
  <path fill="#e1e1e3" d="m396.37 335.69-42.04 42.45-90.3-84.04-16.09-14.98-36.21-33.71-14.78-13.76L49.94 94.83 46.28 24.7l69.47 3.69 133.32 145.99 13.68 14.98 37.42 40.99 14.79 16.19 81.41 89.15z"></path>
  <path fill="#fed947" d="m395.09 340.68-35.83 36.17 101.47 96.9 30.34-30.64-95.98-102.43z"></path>
  <path fill="#fecc30" d="m380.09 340.68 88.76 94.72 7.22-7.29-95.98-102.43-35.83 36.17 7.64 7.29 28.19-28.46z"></path>
  <ellipse cx="472.7" cy="455.2" fill="#eb304a" rx="31.8" ry="32.11"></ellipse>
  <path fill="#e4222e" d="M495.19 432.5a31.59 31.59 0 0 0-30-8.5 31.59 31.59 0 0 1 15 8.5 32.34 32.34 0 0 1 0 45.4 31.59 31.59 0 0 1-15 8.5 31.59 31.59 0 0 0 30-8.5 32.34 32.34 0 0 0 0-45.4Z"></path>
  <path fill="#c8c5cc" d="M340.62 329.35a7.45 7.45 0 0 1-5.33-2.22L98.68 88.25a7.5 7.5 0 0 1 10.66-10.55l236.6 238.87a7.5 7.5 0 0 1-5.32 12.78Z"></path>
  <path fill="#57565c" d="m422.88 275.71-82.26 46.14-45.71 83.05 18.28 18.46 127.97-129.2-18.28-18.45z"></path>
  <path fill="#3c3b41" d="m422.88 275.71-9.64 5.41a18.53 18.53 0 0 1 0 26.09L305.69 415.79l7.5 7.57 128-129.2Z"></path>
  <path fill="#c8c5cc" d="m314.96 246.54-50.93 47.56-52.3-48.69 51.02-56.05 52.21 57.18z"></path>
  <path fill="#c8c5cc" d="m300.17 230.35-52.23 48.77-36.21-33.71-14.78-13.76 52.12-57.27 13.68 14.98 37.42 40.99z"></path>
  <path fill="#e1e1e3" d="m114.84 336.48 42.04 42.45 90.3-84.04 16.09-14.98 36.21-33.71 14.78-13.76L461.27 95.62l3.66-70.13-69.47 3.69-133.32 145.99-13.68 14.98-37.42 40.99-14.79 16.19-81.41 89.15z"></path>
  <path fill="#fed947" d="m116.12 341.47 35.83 36.17-101.47 96.9-30.34-30.64 95.98-102.43z"></path>
  <path fill="#fecc30" d="m116.12 341.47-7.3 7.78 13.79 13.92a20 20 0 0 1-.39 28.54l-79 75.47 7.3 7.36L152 377.64Z"></path>
  <ellipse cx="38.51" cy="455.99" fill="#eb304a" rx="31.8" ry="32.11"></ellipse>
  <path fill="#e4222e" d="M61 433.29a31.58 31.58 0 0 0-30-8.5 31.59 31.59 0 0 1 15 8.5 32.33 32.33 0 0 1 0 45.41 31.67 31.67 0 0 1-15 8.5 31.58 31.58 0 0 0 30-8.5 32.33 32.33 0 0 0 0-45.41Z"></path>
  <path fill="#c8c5cc" d="M170.6 330.14a7.45 7.45 0 0 0 5.32-2.22L412.53 89.05a7.5 7.5 0 1 0-10.66-10.56l-236.6 238.88a7.49 7.49 0 0 0 5.33 12.77Z"></path>
  <path fill="#57565c" d="m88.33 276.5 82.27 46.14 45.7 83.06-18.28 18.46-127.97-129.2 18.28-18.46z"></path>
  <path fill="#3c3b41" d="M170.6 322.64 88.33 276.5 83 281.91l55.56 31.16A68.55 68.55 0 0 1 165 339.79l29.06 52.81a20 20 0 0 1-3.31 23.72l-.26.26 7.5 7.58 18.31-18.46Z"></path>
</svg>
